<svg xmlns="http://www.w3.org/2000/svg" viewBox="0 0 640 420" fill="none">
  <rect width="640" height="420" fill="#ffffff"/>
  <path d="M45 352C128 295 212 278 309 294C405 309 490 355 588 381" stroke="#8D2AF9" stroke-width="28" stroke-linecap="round"/>
  <path d="M438 112C454 89 486 82 510 96L531 107C545 116 551 134 546 150L518 237C509 267 479 285 449 278L390 264C358 257 342 223 359 195L438 112Z" fill="#F2CCB6"/>
  <rect x="505" y="94" width="145" height="24" rx="12" transform="rotate(22 505 94)" fill="#F7F7F7" stroke="#D8D8D8"/>
  <path d="M360 200L423 220" stroke="#E1A78D" stroke-width="14" stroke-linecap="round"/>
</svg>
